<mxfile host="app.diagrams.net" agent="Mozilla/5.0 (Windows NT 10.0; Win64; x64) AppleWebKit/537.36 (KHTML, like Gecko) Chrome/133.0.0.0 Safari/537.36" version="26.0.14">
  <diagram name="Página-1" id="_Vg793GVrQoc5Zzl30e8">
    <mxGraphModel dx="2100" dy="1130" grid="1" gridSize="10" guides="1" tooltips="1" connect="1" arrows="1" fold="1" page="1" pageScale="1" pageWidth="827" pageHeight="1169" math="0" shadow="0">
      <root>
        <mxCell id="0" />
        <mxCell id="1" parent="0" />
        <mxCell id="iTVsTihM8xuyeAr3ngDW-4" value="" style="edgeStyle=orthogonalEdgeStyle;rounded=0;orthogonalLoop=1;jettySize=auto;html=1;" parent="1" source="iTVsTihM8xuyeAr3ngDW-2" target="iTVsTihM8xuyeAr3ngDW-3" edge="1">
          <mxGeometry relative="1" as="geometry" />
        </mxCell>
        <mxCell id="iTVsTihM8xuyeAr3ngDW-2" value="&lt;div&gt;Início&lt;/div&gt;" style="strokeWidth=2;html=1;shape=mxgraph.flowchart.start_1;whiteSpace=wrap;fillColor=#f0a30a;strokeColor=#BD7000;fontColor=#000000;" parent="1" vertex="1">
          <mxGeometry x="95" y="35" width="100" height="60" as="geometry" />
        </mxCell>
        <mxCell id="iTVsTihM8xuyeAr3ngDW-6" value="" style="edgeStyle=orthogonalEdgeStyle;rounded=0;orthogonalLoop=1;jettySize=auto;html=1;" parent="1" source="iTVsTihM8xuyeAr3ngDW-3" target="iTVsTihM8xuyeAr3ngDW-5" edge="1">
          <mxGeometry relative="1" as="geometry" />
        </mxCell>
        <mxCell id="iTVsTihM8xuyeAr3ngDW-3" value="Recebe o 1° número" style="shape=parallelogram;html=1;strokeWidth=2;perimeter=parallelogramPerimeter;whiteSpace=wrap;rounded=1;arcSize=12;size=0.23;fillColor=#ffcc99;strokeColor=#36393d;" parent="1" vertex="1">
          <mxGeometry x="95" y="115" width="100" height="60" as="geometry" />
        </mxCell>
        <mxCell id="iTVsTihM8xuyeAr3ngDW-8" value="" style="edgeStyle=orthogonalEdgeStyle;rounded=0;orthogonalLoop=1;jettySize=auto;html=1;" parent="1" source="iTVsTihM8xuyeAr3ngDW-5" target="iTVsTihM8xuyeAr3ngDW-7" edge="1">
          <mxGeometry relative="1" as="geometry" />
        </mxCell>
        <mxCell id="iTVsTihM8xuyeAr3ngDW-5" value="Recebe o 2° número" style="shape=parallelogram;html=1;strokeWidth=2;perimeter=parallelogramPerimeter;whiteSpace=wrap;rounded=1;arcSize=12;size=0.23;fillColor=#ffcc99;strokeColor=#36393d;" parent="1" vertex="1">
          <mxGeometry x="95" y="195" width="100" height="60" as="geometry" />
        </mxCell>
        <mxCell id="iTVsTihM8xuyeAr3ngDW-10" value="" style="edgeStyle=orthogonalEdgeStyle;rounded=0;orthogonalLoop=1;jettySize=auto;html=1;" parent="1" source="iTVsTihM8xuyeAr3ngDW-7" target="iTVsTihM8xuyeAr3ngDW-9" edge="1">
          <mxGeometry relative="1" as="geometry" />
        </mxCell>
        <mxCell id="iTVsTihM8xuyeAr3ngDW-7" value="Realizar soma dos n° obtidos&amp;nbsp;" style="rounded=1;whiteSpace=wrap;html=1;absoluteArcSize=1;arcSize=14;strokeWidth=2;fillColor=#ffcd28;strokeColor=#d79b00;gradientColor=#ffa500;" parent="1" vertex="1">
          <mxGeometry x="90" y="275" width="110" height="50" as="geometry" />
        </mxCell>
        <mxCell id="iTVsTihM8xuyeAr3ngDW-12" value="" style="edgeStyle=orthogonalEdgeStyle;rounded=0;orthogonalLoop=1;jettySize=auto;html=1;" parent="1" source="iTVsTihM8xuyeAr3ngDW-9" edge="1">
          <mxGeometry relative="1" as="geometry">
            <mxPoint x="145" y="425" as="targetPoint" />
          </mxGeometry>
        </mxCell>
        <mxCell id="iTVsTihM8xuyeAr3ngDW-9" value="Exibe resultado da soma&amp;nbsp;" style="strokeWidth=2;html=1;shape=mxgraph.flowchart.display;whiteSpace=wrap;fillColor=#ffcc99;strokeColor=#36393d;" parent="1" vertex="1">
          <mxGeometry x="95" y="345" width="100" height="60" as="geometry" />
        </mxCell>
        <mxCell id="iTVsTihM8xuyeAr3ngDW-13" value="Fim" style="strokeWidth=2;html=1;shape=mxgraph.flowchart.terminator;whiteSpace=wrap;fillColor=#fa6800;strokeColor=#C73500;fontColor=#000000;" parent="1" vertex="1">
          <mxGeometry x="95" y="425" width="100" height="60" as="geometry" />
        </mxCell>
        <mxCell id="iTVsTihM8xuyeAr3ngDW-17" value="" style="edgeStyle=orthogonalEdgeStyle;rounded=0;orthogonalLoop=1;jettySize=auto;html=1;" parent="1" source="iTVsTihM8xuyeAr3ngDW-15" target="iTVsTihM8xuyeAr3ngDW-16" edge="1">
          <mxGeometry relative="1" as="geometry" />
        </mxCell>
        <mxCell id="iTVsTihM8xuyeAr3ngDW-15" value="&lt;div&gt;Início&lt;/div&gt;" style="strokeWidth=2;html=1;shape=mxgraph.flowchart.start_1;whiteSpace=wrap;fillColor=#dae8fc;strokeColor=#6c8ebf;" parent="1" vertex="1">
          <mxGeometry x="364" y="35" width="100" height="60" as="geometry" />
        </mxCell>
        <mxCell id="iTVsTihM8xuyeAr3ngDW-19" value="" style="edgeStyle=orthogonalEdgeStyle;rounded=0;orthogonalLoop=1;jettySize=auto;html=1;" parent="1" source="iTVsTihM8xuyeAr3ngDW-16" target="iTVsTihM8xuyeAr3ngDW-18" edge="1">
          <mxGeometry relative="1" as="geometry" />
        </mxCell>
        <mxCell id="iTVsTihM8xuyeAr3ngDW-16" value="Receba base&amp;nbsp;&lt;div&gt;do triângulo&lt;/div&gt;" style="shape=parallelogram;html=1;strokeWidth=2;perimeter=parallelogramPerimeter;whiteSpace=wrap;rounded=1;arcSize=12;size=0.23;fillColor=#dae8fc;strokeColor=#6c8ebf;gradientColor=#7ea6e0;" parent="1" vertex="1">
          <mxGeometry x="359" y="125" width="110" height="60" as="geometry" />
        </mxCell>
        <mxCell id="iTVsTihM8xuyeAr3ngDW-21" value="" style="edgeStyle=orthogonalEdgeStyle;rounded=0;orthogonalLoop=1;jettySize=auto;html=1;" parent="1" source="iTVsTihM8xuyeAr3ngDW-18" target="iTVsTihM8xuyeAr3ngDW-20" edge="1">
          <mxGeometry relative="1" as="geometry" />
        </mxCell>
        <mxCell id="iTVsTihM8xuyeAr3ngDW-18" value="Receba altura&amp;nbsp;&lt;div&gt;do triângulo&lt;/div&gt;" style="shape=parallelogram;html=1;strokeWidth=2;perimeter=parallelogramPerimeter;whiteSpace=wrap;rounded=1;arcSize=12;size=0.23;fillColor=#dae8fc;strokeColor=#6c8ebf;gradientColor=#7ea6e0;" parent="1" vertex="1">
          <mxGeometry x="359" y="215" width="110" height="60" as="geometry" />
        </mxCell>
        <mxCell id="iTVsTihM8xuyeAr3ngDW-23" value="" style="edgeStyle=orthogonalEdgeStyle;rounded=0;orthogonalLoop=1;jettySize=auto;html=1;" parent="1" source="iTVsTihM8xuyeAr3ngDW-20" target="iTVsTihM8xuyeAr3ngDW-22" edge="1">
          <mxGeometry relative="1" as="geometry" />
        </mxCell>
        <mxCell id="iTVsTihM8xuyeAr3ngDW-20" value="Calcule área" style="rounded=1;whiteSpace=wrap;html=1;absoluteArcSize=1;arcSize=14;strokeWidth=2;fillColor=#b1ddf0;strokeColor=#10739e;" parent="1" vertex="1">
          <mxGeometry x="354" y="305" width="110" height="50" as="geometry" />
        </mxCell>
        <mxCell id="iTVsTihM8xuyeAr3ngDW-25" value="" style="edgeStyle=orthogonalEdgeStyle;rounded=0;orthogonalLoop=1;jettySize=auto;html=1;" parent="1" source="iTVsTihM8xuyeAr3ngDW-22" target="iTVsTihM8xuyeAr3ngDW-24" edge="1">
          <mxGeometry relative="1" as="geometry" />
        </mxCell>
        <mxCell id="iTVsTihM8xuyeAr3ngDW-22" value="Exiba resultado da área&amp;nbsp;" style="strokeWidth=2;html=1;shape=mxgraph.flowchart.display;whiteSpace=wrap;fillColor=#dae8fc;strokeColor=#6c8ebf;gradientColor=#7ea6e0;" parent="1" vertex="1">
          <mxGeometry x="364" y="375" width="100" height="60" as="geometry" />
        </mxCell>
        <mxCell id="iTVsTihM8xuyeAr3ngDW-24" value="Fim" style="strokeWidth=2;html=1;shape=mxgraph.flowchart.terminator;whiteSpace=wrap;fillColor=#0050ef;strokeColor=#001DBC;fontColor=#ffffff;" parent="1" vertex="1">
          <mxGeometry x="364" y="455" width="100" height="60" as="geometry" />
        </mxCell>
        <mxCell id="iTVsTihM8xuyeAr3ngDW-28" value="" style="edgeStyle=orthogonalEdgeStyle;rounded=0;orthogonalLoop=1;jettySize=auto;html=1;" parent="1" source="iTVsTihM8xuyeAr3ngDW-26" target="iTVsTihM8xuyeAr3ngDW-27" edge="1">
          <mxGeometry relative="1" as="geometry" />
        </mxCell>
        <mxCell id="iTVsTihM8xuyeAr3ngDW-26" value="&lt;div&gt;Início&lt;/div&gt;" style="strokeWidth=2;html=1;shape=mxgraph.flowchart.start_1;whiteSpace=wrap;fillColor=#d0cee2;strokeColor=#56517e;" parent="1" vertex="1">
          <mxGeometry x="635" y="35" width="100" height="60" as="geometry" />
        </mxCell>
        <mxCell id="iTVsTihM8xuyeAr3ngDW-30" value="" style="edgeStyle=orthogonalEdgeStyle;rounded=0;orthogonalLoop=1;jettySize=auto;html=1;" parent="1" source="iTVsTihM8xuyeAr3ngDW-27" edge="1">
          <mxGeometry relative="1" as="geometry">
            <mxPoint x="685" y="205" as="targetPoint" />
          </mxGeometry>
        </mxCell>
        <mxCell id="iTVsTihM8xuyeAr3ngDW-27" value="Receba um&lt;div&gt;número&lt;/div&gt;" style="shape=parallelogram;html=1;strokeWidth=2;perimeter=parallelogramPerimeter;whiteSpace=wrap;rounded=1;arcSize=12;size=0.23;fillColor=#e1d5e7;strokeColor=#9673a6;" parent="1" vertex="1">
          <mxGeometry x="635" y="125" width="100" height="60" as="geometry" />
        </mxCell>
        <mxCell id="iTVsTihM8xuyeAr3ngDW-37" value="" style="edgeStyle=orthogonalEdgeStyle;rounded=0;orthogonalLoop=1;jettySize=auto;html=1;" parent="1" source="iTVsTihM8xuyeAr3ngDW-31" target="iTVsTihM8xuyeAr3ngDW-36" edge="1">
          <mxGeometry relative="1" as="geometry" />
        </mxCell>
        <mxCell id="iTVsTihM8xuyeAr3ngDW-31" value="Calcule o dobro do número&amp;nbsp;" style="rounded=1;whiteSpace=wrap;html=1;absoluteArcSize=1;arcSize=14;strokeWidth=2;fillColor=#76608a;strokeColor=#432D57;fontColor=#ffffff;" parent="1" vertex="1">
          <mxGeometry x="630" y="205" width="110" height="50" as="geometry" />
        </mxCell>
        <mxCell id="iTVsTihM8xuyeAr3ngDW-35" value="" style="edgeStyle=orthogonalEdgeStyle;rounded=0;orthogonalLoop=1;jettySize=auto;html=1;" parent="1" source="iTVsTihM8xuyeAr3ngDW-32" target="iTVsTihM8xuyeAr3ngDW-34" edge="1">
          <mxGeometry relative="1" as="geometry" />
        </mxCell>
        <mxCell id="iTVsTihM8xuyeAr3ngDW-32" value="Exiba o dobro e a metade do valor" style="strokeWidth=2;html=1;shape=mxgraph.flowchart.display;whiteSpace=wrap;fillColor=#e1d5e7;strokeColor=#9673a6;" parent="1" vertex="1">
          <mxGeometry x="627.5" y="355" width="115" height="60" as="geometry" />
        </mxCell>
        <mxCell id="iTVsTihM8xuyeAr3ngDW-34" value="Fim" style="strokeWidth=2;html=1;shape=mxgraph.flowchart.terminator;whiteSpace=wrap;fillColor=#e6d0de;strokeColor=#996185;gradientColor=#d5739d;" parent="1" vertex="1">
          <mxGeometry x="635" y="435" width="100" height="60" as="geometry" />
        </mxCell>
        <mxCell id="iTVsTihM8xuyeAr3ngDW-38" value="" style="edgeStyle=orthogonalEdgeStyle;rounded=0;orthogonalLoop=1;jettySize=auto;html=1;" parent="1" source="iTVsTihM8xuyeAr3ngDW-36" target="iTVsTihM8xuyeAr3ngDW-32" edge="1">
          <mxGeometry relative="1" as="geometry" />
        </mxCell>
        <mxCell id="iTVsTihM8xuyeAr3ngDW-36" value="Calcule a metade do número" style="rounded=1;whiteSpace=wrap;html=1;absoluteArcSize=1;arcSize=14;strokeWidth=2;fillColor=#76608a;strokeColor=#432D57;fontColor=#ffffff;" parent="1" vertex="1">
          <mxGeometry x="630" y="280" width="110" height="50" as="geometry" />
        </mxCell>
        <mxCell id="iTVsTihM8xuyeAr3ngDW-39" value="" style="edgeStyle=orthogonalEdgeStyle;rounded=0;orthogonalLoop=1;jettySize=auto;html=1;" parent="1" source="iTVsTihM8xuyeAr3ngDW-40" target="iTVsTihM8xuyeAr3ngDW-42" edge="1">
          <mxGeometry relative="1" as="geometry" />
        </mxCell>
        <mxCell id="iTVsTihM8xuyeAr3ngDW-40" value="&lt;div&gt;Início&lt;/div&gt;" style="strokeWidth=2;html=1;shape=mxgraph.flowchart.start_1;whiteSpace=wrap;fillColor=#d5e8d4;strokeColor=#82b366;" parent="1" vertex="1">
          <mxGeometry x="290" y="580" width="100" height="60" as="geometry" />
        </mxCell>
        <mxCell id="iTVsTihM8xuyeAr3ngDW-41" value="" style="edgeStyle=orthogonalEdgeStyle;rounded=0;orthogonalLoop=1;jettySize=auto;html=1;" parent="1" source="iTVsTihM8xuyeAr3ngDW-42" target="iTVsTihM8xuyeAr3ngDW-44" edge="1">
          <mxGeometry relative="1" as="geometry" />
        </mxCell>
        <mxCell id="iTVsTihM8xuyeAr3ngDW-42" value="Obter 1° nota" style="shape=parallelogram;html=1;strokeWidth=2;perimeter=parallelogramPerimeter;whiteSpace=wrap;rounded=1;arcSize=12;size=0.23;fillColor=#60a917;strokeColor=#2D7600;fontColor=#ffffff;" parent="1" vertex="1">
          <mxGeometry x="285" y="655" width="110" height="60" as="geometry" />
        </mxCell>
        <mxCell id="iTVsTihM8xuyeAr3ngDW-43" value="" style="edgeStyle=orthogonalEdgeStyle;rounded=0;orthogonalLoop=1;jettySize=auto;html=1;" parent="1" source="iTVsTihM8xuyeAr3ngDW-44" target="iTVsTihM8xuyeAr3ngDW-45" edge="1">
          <mxGeometry relative="1" as="geometry" />
        </mxCell>
        <mxCell id="iTVsTihM8xuyeAr3ngDW-44" value="Obter 2° nota" style="shape=parallelogram;html=1;strokeWidth=2;perimeter=parallelogramPerimeter;whiteSpace=wrap;rounded=1;arcSize=12;size=0.23;fillColor=#60a917;strokeColor=#2D7600;fontColor=#ffffff;" parent="1" vertex="1">
          <mxGeometry x="285" y="735" width="110" height="60" as="geometry" />
        </mxCell>
        <mxCell id="iTVsTihM8xuyeAr3ngDW-48" value="" style="edgeStyle=orthogonalEdgeStyle;rounded=0;orthogonalLoop=1;jettySize=auto;html=1;" parent="1" source="iTVsTihM8xuyeAr3ngDW-45" target="iTVsTihM8xuyeAr3ngDW-47" edge="1">
          <mxGeometry relative="1" as="geometry" />
        </mxCell>
        <mxCell id="iTVsTihM8xuyeAr3ngDW-45" value="Calcular a média" style="rounded=1;whiteSpace=wrap;html=1;absoluteArcSize=1;arcSize=14;strokeWidth=2;fillColor=#cdeb8b;strokeColor=#36393d;" parent="1" vertex="1">
          <mxGeometry x="285" y="825" width="110" height="50" as="geometry" />
        </mxCell>
        <mxCell id="iTVsTihM8xuyeAr3ngDW-50" value="" style="edgeStyle=orthogonalEdgeStyle;rounded=0;orthogonalLoop=1;jettySize=auto;html=1;" parent="1" source="iTVsTihM8xuyeAr3ngDW-47" target="iTVsTihM8xuyeAr3ngDW-49" edge="1">
          <mxGeometry relative="1" as="geometry" />
        </mxCell>
        <mxCell id="iTVsTihM8xuyeAr3ngDW-51" value="SIM" style="edgeLabel;html=1;align=center;verticalAlign=middle;resizable=0;points=[];" parent="iTVsTihM8xuyeAr3ngDW-50" vertex="1" connectable="0">
          <mxGeometry x="-0.5954" y="1" relative="1" as="geometry">
            <mxPoint as="offset" />
          </mxGeometry>
        </mxCell>
        <mxCell id="iTVsTihM8xuyeAr3ngDW-53" value="" style="edgeStyle=orthogonalEdgeStyle;rounded=0;orthogonalLoop=1;jettySize=auto;html=1;" parent="1" source="iTVsTihM8xuyeAr3ngDW-47" target="iTVsTihM8xuyeAr3ngDW-52" edge="1">
          <mxGeometry relative="1" as="geometry" />
        </mxCell>
        <mxCell id="iTVsTihM8xuyeAr3ngDW-54" value="NÃO" style="edgeLabel;html=1;align=center;verticalAlign=middle;resizable=0;points=[];" parent="iTVsTihM8xuyeAr3ngDW-53" vertex="1" connectable="0">
          <mxGeometry x="-0.7003" y="-2" relative="1" as="geometry">
            <mxPoint as="offset" />
          </mxGeometry>
        </mxCell>
        <mxCell id="iTVsTihM8xuyeAr3ngDW-47" value="Média é acima&amp;nbsp;&lt;div&gt;de 7?&lt;/div&gt;" style="strokeWidth=2;html=1;shape=mxgraph.flowchart.decision;whiteSpace=wrap;fillColor=#6d8764;strokeColor=#3A5431;fontColor=#ffffff;" parent="1" vertex="1">
          <mxGeometry x="282.5" y="895" width="115" height="90" as="geometry" />
        </mxCell>
        <mxCell id="iTVsTihM8xuyeAr3ngDW-65" value="" style="edgeStyle=orthogonalEdgeStyle;rounded=0;orthogonalLoop=1;jettySize=auto;html=1;" parent="1" source="iTVsTihM8xuyeAr3ngDW-49" edge="1">
          <mxGeometry relative="1" as="geometry">
            <mxPoint x="400" y="1080" as="targetPoint" />
            <Array as="points">
              <mxPoint x="600" y="988" />
              <mxPoint x="531" y="988" />
            </Array>
          </mxGeometry>
        </mxCell>
        <mxCell id="iTVsTihM8xuyeAr3ngDW-49" value="Exibir Aprovado" style="strokeWidth=2;html=1;shape=mxgraph.flowchart.display;whiteSpace=wrap;fillColor=#60a917;strokeColor=#2D7600;fontColor=#ffffff;" parent="1" vertex="1">
          <mxGeometry x="535" y="875" width="100" height="60" as="geometry" />
        </mxCell>
        <mxCell id="iTVsTihM8xuyeAr3ngDW-67" value="" style="edgeStyle=orthogonalEdgeStyle;rounded=0;orthogonalLoop=1;jettySize=auto;html=1;" parent="1" source="iTVsTihM8xuyeAr3ngDW-52" edge="1">
          <mxGeometry relative="1" as="geometry">
            <mxPoint x="290" y="1080" as="targetPoint" />
            <Array as="points">
              <mxPoint x="100" y="990" />
              <mxPoint x="146" y="990" />
              <mxPoint x="146" y="1080" />
            </Array>
          </mxGeometry>
        </mxCell>
        <mxCell id="iTVsTihM8xuyeAr3ngDW-52" value="Exibir Reprovado" style="strokeWidth=2;html=1;shape=mxgraph.flowchart.display;whiteSpace=wrap;fillColor=#60a917;strokeColor=#2D7600;fontColor=#ffffff;" parent="1" vertex="1">
          <mxGeometry x="50" y="875" width="100" height="60" as="geometry" />
        </mxCell>
        <mxCell id="iTVsTihM8xuyeAr3ngDW-55" value="Fim" style="strokeWidth=2;html=1;shape=mxgraph.flowchart.start_1;whiteSpace=wrap;fillColor=#d5e8d4;strokeColor=#82b366;gradientColor=#97d077;" parent="1" vertex="1">
          <mxGeometry x="295" y="1040" width="100" height="60" as="geometry" />
        </mxCell>
        <mxCell id="zOiDSa_334_fHsH369Ec-3" value="" style="edgeStyle=orthogonalEdgeStyle;rounded=0;orthogonalLoop=1;jettySize=auto;html=1;" parent="1" source="zOiDSa_334_fHsH369Ec-4" target="zOiDSa_334_fHsH369Ec-6" edge="1">
          <mxGeometry relative="1" as="geometry" />
        </mxCell>
        <mxCell id="zOiDSa_334_fHsH369Ec-4" value="&lt;div&gt;Início&lt;/div&gt;" style="strokeWidth=2;html=1;shape=mxgraph.flowchart.start_1;whiteSpace=wrap;fillColor=#e6d0de;strokeColor=#996185;gradientColor=#d5739d;" parent="1" vertex="1">
          <mxGeometry x="1080" y="580" width="100" height="60" as="geometry" />
        </mxCell>
        <mxCell id="zOiDSa_334_fHsH369Ec-5" value="" style="edgeStyle=orthogonalEdgeStyle;rounded=0;orthogonalLoop=1;jettySize=auto;html=1;" parent="1" source="zOiDSa_334_fHsH369Ec-6" edge="1">
          <mxGeometry relative="1" as="geometry">
            <mxPoint x="1130" y="735" as="targetPoint" />
          </mxGeometry>
        </mxCell>
        <mxCell id="zOiDSa_334_fHsH369Ec-6" value="Obter um&amp;nbsp;&lt;div&gt;número&lt;/div&gt;" style="shape=parallelogram;html=1;strokeWidth=2;perimeter=parallelogramPerimeter;whiteSpace=wrap;rounded=1;arcSize=12;size=0.23;fillColor=#dae8fc;strokeColor=#6c8ebf;gradientColor=#7ea6e0;" parent="1" vertex="1">
          <mxGeometry x="1075" y="655" width="110" height="60" as="geometry" />
        </mxCell>
        <mxCell id="zOiDSa_334_fHsH369Ec-11" value="" style="edgeStyle=orthogonalEdgeStyle;rounded=0;orthogonalLoop=1;jettySize=auto;html=1;" parent="1" source="zOiDSa_334_fHsH369Ec-15" target="zOiDSa_334_fHsH369Ec-17" edge="1">
          <mxGeometry relative="1" as="geometry" />
        </mxCell>
        <mxCell id="zOiDSa_334_fHsH369Ec-12" value="SIM" style="edgeLabel;html=1;align=center;verticalAlign=middle;resizable=0;points=[];" parent="zOiDSa_334_fHsH369Ec-11" vertex="1" connectable="0">
          <mxGeometry x="-0.5954" y="1" relative="1" as="geometry">
            <mxPoint as="offset" />
          </mxGeometry>
        </mxCell>
        <mxCell id="zOiDSa_334_fHsH369Ec-13" value="" style="edgeStyle=orthogonalEdgeStyle;rounded=0;orthogonalLoop=1;jettySize=auto;html=1;" parent="1" source="zOiDSa_334_fHsH369Ec-15" target="zOiDSa_334_fHsH369Ec-19" edge="1">
          <mxGeometry relative="1" as="geometry" />
        </mxCell>
        <mxCell id="zOiDSa_334_fHsH369Ec-14" value="NÃO" style="edgeLabel;html=1;align=center;verticalAlign=middle;resizable=0;points=[];" parent="zOiDSa_334_fHsH369Ec-13" vertex="1" connectable="0">
          <mxGeometry x="-0.7003" y="-2" relative="1" as="geometry">
            <mxPoint as="offset" />
          </mxGeometry>
        </mxCell>
        <mxCell id="zOiDSa_334_fHsH369Ec-15" value="Número é par?" style="strokeWidth=2;html=1;shape=mxgraph.flowchart.decision;whiteSpace=wrap;fillColor=#fad9d5;strokeColor=#ae4132;" parent="1" vertex="1">
          <mxGeometry x="1072.5" y="735" width="115" height="90" as="geometry" />
        </mxCell>
        <mxCell id="zOiDSa_334_fHsH369Ec-16" value="" style="edgeStyle=orthogonalEdgeStyle;rounded=0;orthogonalLoop=1;jettySize=auto;html=1;" parent="1" source="zOiDSa_334_fHsH369Ec-17" edge="1">
          <mxGeometry relative="1" as="geometry">
            <mxPoint x="1190" y="1080" as="targetPoint" />
            <Array as="points">
              <mxPoint x="1390" y="988" />
              <mxPoint x="1321" y="988" />
            </Array>
          </mxGeometry>
        </mxCell>
        <mxCell id="zOiDSa_334_fHsH369Ec-17" value="O número é par" style="strokeWidth=2;html=1;shape=mxgraph.flowchart.display;whiteSpace=wrap;fillColor=#b1ddf0;strokeColor=#10739e;" parent="1" vertex="1">
          <mxGeometry x="1325" y="875" width="100" height="60" as="geometry" />
        </mxCell>
        <mxCell id="zOiDSa_334_fHsH369Ec-18" value="" style="edgeStyle=orthogonalEdgeStyle;rounded=0;orthogonalLoop=1;jettySize=auto;html=1;" parent="1" source="zOiDSa_334_fHsH369Ec-19" edge="1">
          <mxGeometry relative="1" as="geometry">
            <mxPoint x="1080" y="1080" as="targetPoint" />
            <Array as="points">
              <mxPoint x="890" y="990" />
              <mxPoint x="936" y="990" />
              <mxPoint x="936" y="1080" />
            </Array>
          </mxGeometry>
        </mxCell>
        <mxCell id="zOiDSa_334_fHsH369Ec-19" value="O número é&amp;nbsp;&lt;div&gt;ímpar&lt;/div&gt;" style="strokeWidth=2;html=1;shape=mxgraph.flowchart.display;whiteSpace=wrap;fillColor=#b1ddf0;strokeColor=#10739e;" parent="1" vertex="1">
          <mxGeometry x="840" y="875" width="100" height="60" as="geometry" />
        </mxCell>
        <mxCell id="zOiDSa_334_fHsH369Ec-20" value="Fim" style="strokeWidth=2;html=1;shape=mxgraph.flowchart.start_1;whiteSpace=wrap;fillColor=#d80073;strokeColor=#A50040;fontColor=#ffffff;" parent="1" vertex="1">
          <mxGeometry x="1085" y="1040" width="100" height="60" as="geometry" />
        </mxCell>
        <mxCell id="zOiDSa_334_fHsH369Ec-39" value="" style="edgeStyle=orthogonalEdgeStyle;rounded=0;orthogonalLoop=1;jettySize=auto;html=1;" parent="1" source="zOiDSa_334_fHsH369Ec-40" target="zOiDSa_334_fHsH369Ec-42" edge="1">
          <mxGeometry relative="1" as="geometry" />
        </mxCell>
        <mxCell id="zOiDSa_334_fHsH369Ec-40" value="&lt;div&gt;Início&lt;/div&gt;" style="strokeWidth=2;html=1;shape=mxgraph.flowchart.start_1;whiteSpace=wrap;fillColor=#e6d0de;strokeColor=#996185;gradientColor=#d5739d;" parent="1" vertex="1">
          <mxGeometry x="1780" y="580" width="100" height="60" as="geometry" />
        </mxCell>
        <mxCell id="zOiDSa_334_fHsH369Ec-41" value="" style="edgeStyle=orthogonalEdgeStyle;rounded=0;orthogonalLoop=1;jettySize=auto;html=1;" parent="1" source="zOiDSa_334_fHsH369Ec-42" edge="1">
          <mxGeometry relative="1" as="geometry">
            <mxPoint x="1830" y="735" as="targetPoint" />
          </mxGeometry>
        </mxCell>
        <mxCell id="zOiDSa_334_fHsH369Ec-42" value="Obter a idade&lt;div&gt;da pessoa&lt;/div&gt;" style="shape=parallelogram;html=1;strokeWidth=2;perimeter=parallelogramPerimeter;whiteSpace=wrap;rounded=1;arcSize=12;size=0.23;fillColor=#dae8fc;strokeColor=#6c8ebf;gradientColor=#7ea6e0;" parent="1" vertex="1">
          <mxGeometry x="1775" y="655" width="110" height="60" as="geometry" />
        </mxCell>
        <mxCell id="zOiDSa_334_fHsH369Ec-43" value="" style="edgeStyle=orthogonalEdgeStyle;rounded=0;orthogonalLoop=1;jettySize=auto;html=1;" parent="1" source="zOiDSa_334_fHsH369Ec-47" target="zOiDSa_334_fHsH369Ec-49" edge="1">
          <mxGeometry relative="1" as="geometry" />
        </mxCell>
        <mxCell id="zOiDSa_334_fHsH369Ec-44" value="SIM" style="edgeLabel;html=1;align=center;verticalAlign=middle;resizable=0;points=[];" parent="zOiDSa_334_fHsH369Ec-43" vertex="1" connectable="0">
          <mxGeometry x="-0.5954" y="1" relative="1" as="geometry">
            <mxPoint as="offset" />
          </mxGeometry>
        </mxCell>
        <mxCell id="zOiDSa_334_fHsH369Ec-45" value="" style="edgeStyle=orthogonalEdgeStyle;rounded=0;orthogonalLoop=1;jettySize=auto;html=1;" parent="1" source="zOiDSa_334_fHsH369Ec-47" target="zOiDSa_334_fHsH369Ec-51" edge="1">
          <mxGeometry relative="1" as="geometry" />
        </mxCell>
        <mxCell id="zOiDSa_334_fHsH369Ec-46" value="NÃO" style="edgeLabel;html=1;align=center;verticalAlign=middle;resizable=0;points=[];" parent="zOiDSa_334_fHsH369Ec-45" vertex="1" connectable="0">
          <mxGeometry x="-0.7003" y="-2" relative="1" as="geometry">
            <mxPoint as="offset" />
          </mxGeometry>
        </mxCell>
        <mxCell id="zOiDSa_334_fHsH369Ec-47" value="A idade é &amp;gt;=18?" style="strokeWidth=2;html=1;shape=mxgraph.flowchart.decision;whiteSpace=wrap;fillColor=#fad9d5;strokeColor=#ae4132;" parent="1" vertex="1">
          <mxGeometry x="1772.5" y="735" width="115" height="90" as="geometry" />
        </mxCell>
        <mxCell id="zOiDSa_334_fHsH369Ec-48" value="" style="edgeStyle=orthogonalEdgeStyle;rounded=0;orthogonalLoop=1;jettySize=auto;html=1;" parent="1" source="zOiDSa_334_fHsH369Ec-49" edge="1">
          <mxGeometry relative="1" as="geometry">
            <mxPoint x="1890" y="1080" as="targetPoint" />
            <Array as="points">
              <mxPoint x="2090" y="988" />
              <mxPoint x="2021" y="988" />
            </Array>
          </mxGeometry>
        </mxCell>
        <mxCell id="zOiDSa_334_fHsH369Ec-49" value="Pode dirigir" style="strokeWidth=2;html=1;shape=mxgraph.flowchart.display;whiteSpace=wrap;fillColor=#b1ddf0;strokeColor=#10739e;" parent="1" vertex="1">
          <mxGeometry x="2025" y="875" width="100" height="60" as="geometry" />
        </mxCell>
        <mxCell id="zOiDSa_334_fHsH369Ec-50" value="" style="edgeStyle=orthogonalEdgeStyle;rounded=0;orthogonalLoop=1;jettySize=auto;html=1;" parent="1" source="zOiDSa_334_fHsH369Ec-51" edge="1">
          <mxGeometry relative="1" as="geometry">
            <mxPoint x="1780" y="1080" as="targetPoint" />
            <Array as="points">
              <mxPoint x="1590" y="990" />
              <mxPoint x="1636" y="990" />
              <mxPoint x="1636" y="1080" />
            </Array>
          </mxGeometry>
        </mxCell>
        <mxCell id="zOiDSa_334_fHsH369Ec-51" value="Ainda não pode&lt;div&gt;dirigir&lt;/div&gt;" style="strokeWidth=2;html=1;shape=mxgraph.flowchart.display;whiteSpace=wrap;fillColor=#b1ddf0;strokeColor=#10739e;" parent="1" vertex="1">
          <mxGeometry x="1540" y="875" width="100" height="60" as="geometry" />
        </mxCell>
        <mxCell id="zOiDSa_334_fHsH369Ec-52" value="Fim" style="strokeWidth=2;html=1;shape=mxgraph.flowchart.start_1;whiteSpace=wrap;fillColor=#d80073;strokeColor=#A50040;fontColor=#ffffff;" parent="1" vertex="1">
          <mxGeometry x="1785" y="1040" width="100" height="60" as="geometry" />
        </mxCell>
        <mxCell id="zOiDSa_334_fHsH369Ec-53" value="" style="edgeStyle=orthogonalEdgeStyle;rounded=0;orthogonalLoop=1;jettySize=auto;html=1;" parent="1" source="zOiDSa_334_fHsH369Ec-54" target="zOiDSa_334_fHsH369Ec-56" edge="1">
          <mxGeometry relative="1" as="geometry" />
        </mxCell>
        <mxCell id="zOiDSa_334_fHsH369Ec-54" value="&lt;div&gt;Início&lt;/div&gt;" style="strokeWidth=2;html=1;shape=mxgraph.flowchart.start_1;whiteSpace=wrap;fillColor=#e6d0de;strokeColor=#996185;gradientColor=#d5739d;" parent="1" vertex="1">
          <mxGeometry x="2620" y="585" width="100" height="60" as="geometry" />
        </mxCell>
        <mxCell id="zOiDSa_334_fHsH369Ec-55" value="" style="edgeStyle=orthogonalEdgeStyle;rounded=0;orthogonalLoop=1;jettySize=auto;html=1;" parent="1" source="zOiDSa_334_fHsH369Ec-56" edge="1">
          <mxGeometry relative="1" as="geometry">
            <mxPoint x="2670" y="740" as="targetPoint" />
          </mxGeometry>
        </mxCell>
        <mxCell id="zOiDSa_334_fHsH369Ec-56" value="Obter temperatura&lt;div&gt;do líquido&lt;/div&gt;" style="shape=parallelogram;html=1;strokeWidth=2;perimeter=parallelogramPerimeter;whiteSpace=wrap;rounded=1;arcSize=12;size=0.23;fillColor=#e1d5e7;strokeColor=#9673a6;" parent="1" vertex="1">
          <mxGeometry x="2602.5" y="660" width="135" height="60" as="geometry" />
        </mxCell>
        <mxCell id="zOiDSa_334_fHsH369Ec-59" value="" style="edgeStyle=orthogonalEdgeStyle;rounded=0;orthogonalLoop=1;jettySize=auto;html=1;" parent="1" source="zOiDSa_334_fHsH369Ec-61" target="zOiDSa_334_fHsH369Ec-65" edge="1">
          <mxGeometry relative="1" as="geometry" />
        </mxCell>
        <mxCell id="zOiDSa_334_fHsH369Ec-94" value="SIM" style="edgeLabel;html=1;align=center;verticalAlign=middle;resizable=0;points=[];" parent="zOiDSa_334_fHsH369Ec-59" vertex="1" connectable="0">
          <mxGeometry x="-0.7231" relative="1" as="geometry">
            <mxPoint x="-12" as="offset" />
          </mxGeometry>
        </mxCell>
        <mxCell id="zOiDSa_334_fHsH369Ec-104" value="" style="edgeStyle=orthogonalEdgeStyle;rounded=0;orthogonalLoop=1;jettySize=auto;html=1;" parent="1" source="zOiDSa_334_fHsH369Ec-61" target="zOiDSa_334_fHsH369Ec-98" edge="1">
          <mxGeometry relative="1" as="geometry" />
        </mxCell>
        <mxCell id="zOiDSa_334_fHsH369Ec-105" value="NÃO" style="edgeLabel;html=1;align=center;verticalAlign=middle;resizable=0;points=[];" parent="zOiDSa_334_fHsH369Ec-104" vertex="1" connectable="0">
          <mxGeometry x="-0.596" y="-2" relative="1" as="geometry">
            <mxPoint as="offset" />
          </mxGeometry>
        </mxCell>
        <mxCell id="zOiDSa_334_fHsH369Ec-61" value="O líquido está&amp;nbsp; com a temperatura &amp;lt;=&lt;span style=&quot;background-color: transparent; color: light-dark(rgb(0, 0, 0), rgb(255, 255, 255));&quot;&gt;&amp;nbsp;0°C?&lt;/span&gt;" style="strokeWidth=2;html=1;shape=mxgraph.flowchart.decision;whiteSpace=wrap;fillColor=#fad9d5;strokeColor=#ae4132;" parent="1" vertex="1">
          <mxGeometry x="2591.25" y="740" width="157.5" height="140" as="geometry" />
        </mxCell>
        <mxCell id="zOiDSa_334_fHsH369Ec-115" value="" style="edgeStyle=orthogonalEdgeStyle;rounded=0;orthogonalLoop=1;jettySize=auto;html=1;" parent="1" source="zOiDSa_334_fHsH369Ec-63" edge="1">
          <mxGeometry relative="1" as="geometry">
            <mxPoint x="2670" y="1045" as="targetPoint" />
          </mxGeometry>
        </mxCell>
        <mxCell id="zOiDSa_334_fHsH369Ec-63" value="Líquido em estado gasoso" style="strokeWidth=2;html=1;shape=mxgraph.flowchart.display;whiteSpace=wrap;fillColor=#e1d5e7;strokeColor=#9673a6;" parent="1" vertex="1">
          <mxGeometry x="2865" y="880" width="95" height="60" as="geometry" />
        </mxCell>
        <mxCell id="zOiDSa_334_fHsH369Ec-64" value="" style="edgeStyle=orthogonalEdgeStyle;rounded=0;orthogonalLoop=1;jettySize=auto;html=1;" parent="1" source="zOiDSa_334_fHsH369Ec-65" edge="1">
          <mxGeometry relative="1" as="geometry">
            <mxPoint x="2620" y="1085" as="targetPoint" />
            <Array as="points">
              <mxPoint x="2430" y="995" />
              <mxPoint x="2476" y="995" />
              <mxPoint x="2476" y="1085" />
            </Array>
          </mxGeometry>
        </mxCell>
        <mxCell id="zOiDSa_334_fHsH369Ec-65" value="Líquido congelado" style="strokeWidth=2;html=1;shape=mxgraph.flowchart.display;whiteSpace=wrap;fillColor=#e1d5e7;strokeColor=#9673a6;" parent="1" vertex="1">
          <mxGeometry x="2380" y="880" width="100" height="60" as="geometry" />
        </mxCell>
        <mxCell id="zOiDSa_334_fHsH369Ec-66" value="Fim" style="strokeWidth=2;html=1;shape=mxgraph.flowchart.start_1;whiteSpace=wrap;fillColor=#d80073;strokeColor=#A50040;fontColor=#ffffff;" parent="1" vertex="1">
          <mxGeometry x="2620" y="1045" width="100" height="60" as="geometry" />
        </mxCell>
        <mxCell id="zOiDSa_334_fHsH369Ec-113" value="" style="edgeStyle=orthogonalEdgeStyle;rounded=0;orthogonalLoop=1;jettySize=auto;html=1;entryX=1;entryY=0.5;entryDx=0;entryDy=0;entryPerimeter=0;" parent="1" source="zOiDSa_334_fHsH369Ec-71" target="zOiDSa_334_fHsH369Ec-66" edge="1">
          <mxGeometry relative="1" as="geometry">
            <mxPoint x="3040" y="1080" as="targetPoint" />
            <Array as="points">
              <mxPoint x="3040" y="983" />
              <mxPoint x="3041" y="983" />
              <mxPoint x="3041" y="1075" />
            </Array>
          </mxGeometry>
        </mxCell>
        <mxCell id="zOiDSa_334_fHsH369Ec-71" value="Líquido em estado gasoso" style="strokeWidth=2;html=1;shape=mxgraph.flowchart.display;whiteSpace=wrap;fillColor=#e1d5e7;strokeColor=#9673a6;" parent="1" vertex="1">
          <mxGeometry x="2990" y="825" width="100" height="60" as="geometry" />
        </mxCell>
        <mxCell id="zOiDSa_334_fHsH369Ec-99" value="" style="edgeStyle=orthogonalEdgeStyle;rounded=0;orthogonalLoop=1;jettySize=auto;html=1;" parent="1" source="zOiDSa_334_fHsH369Ec-98" target="zOiDSa_334_fHsH369Ec-63" edge="1">
          <mxGeometry relative="1" as="geometry" />
        </mxCell>
        <mxCell id="zOiDSa_334_fHsH369Ec-103" value="NÃO" style="edgeLabel;html=1;align=center;verticalAlign=middle;resizable=0;points=[];" parent="zOiDSa_334_fHsH369Ec-99" vertex="1" connectable="0">
          <mxGeometry x="-0.043" y="-2" relative="1" as="geometry">
            <mxPoint as="offset" />
          </mxGeometry>
        </mxCell>
        <mxCell id="zOiDSa_334_fHsH369Ec-101" value="" style="edgeStyle=orthogonalEdgeStyle;rounded=0;orthogonalLoop=1;jettySize=auto;html=1;entryX=0.5;entryY=0;entryDx=0;entryDy=0;entryPerimeter=0;" parent="1" source="zOiDSa_334_fHsH369Ec-98" target="zOiDSa_334_fHsH369Ec-71" edge="1">
          <mxGeometry relative="1" as="geometry">
            <mxPoint x="3072.5" y="765" as="targetPoint" />
            <Array as="points">
              <mxPoint x="3023" y="765" />
              <mxPoint x="3023" y="766" />
              <mxPoint x="3040" y="766" />
            </Array>
          </mxGeometry>
        </mxCell>
        <mxCell id="zOiDSa_334_fHsH369Ec-102" value="SIM" style="edgeLabel;html=1;align=center;verticalAlign=middle;resizable=0;points=[];" parent="zOiDSa_334_fHsH369Ec-101" vertex="1" connectable="0">
          <mxGeometry x="-0.5404" y="-2" relative="1" as="geometry">
            <mxPoint as="offset" />
          </mxGeometry>
        </mxCell>
        <mxCell id="zOiDSa_334_fHsH369Ec-98" value="A temperatura é&lt;div&gt;&amp;gt;=100?&lt;/div&gt;" style="rhombus;whiteSpace=wrap;html=1;fillColor=#fad9d5;strokeColor=#ae4132;" parent="1" vertex="1">
          <mxGeometry x="2852.5" y="717.5" width="120" height="95" as="geometry" />
        </mxCell>
        <mxCell id="zOiDSa_334_fHsH369Ec-116" value="" style="edgeStyle=orthogonalEdgeStyle;rounded=0;orthogonalLoop=1;jettySize=auto;html=1;" parent="1" source="zOiDSa_334_fHsH369Ec-117" target="zOiDSa_334_fHsH369Ec-119" edge="1">
          <mxGeometry relative="1" as="geometry" />
        </mxCell>
        <mxCell id="zOiDSa_334_fHsH369Ec-117" value="&lt;div&gt;Início&lt;/div&gt;" style="strokeWidth=2;html=1;shape=mxgraph.flowchart.start_1;whiteSpace=wrap;fillColor=#e6d0de;strokeColor=#996185;gradientColor=#d5739d;" parent="1" vertex="1">
          <mxGeometry x="3430" y="590" width="100" height="60" as="geometry" />
        </mxCell>
        <mxCell id="zOiDSa_334_fHsH369Ec-118" value="" style="edgeStyle=orthogonalEdgeStyle;rounded=0;orthogonalLoop=1;jettySize=auto;html=1;" parent="1" source="zOiDSa_334_fHsH369Ec-119" edge="1">
          <mxGeometry relative="1" as="geometry">
            <mxPoint x="3480" y="745" as="targetPoint" />
          </mxGeometry>
        </mxCell>
        <mxCell id="zOiDSa_334_fHsH369Ec-119" value="Obter a idade de&amp;nbsp;&lt;div&gt;uma pessoa&lt;/div&gt;" style="shape=parallelogram;html=1;strokeWidth=2;perimeter=parallelogramPerimeter;whiteSpace=wrap;rounded=1;arcSize=12;size=0.23;fillColor=#d0cee2;strokeColor=#56517e;" parent="1" vertex="1">
          <mxGeometry x="3412.5" y="665" width="135" height="60" as="geometry" />
        </mxCell>
        <mxCell id="zOiDSa_334_fHsH369Ec-120" value="" style="edgeStyle=orthogonalEdgeStyle;rounded=0;orthogonalLoop=1;jettySize=auto;html=1;" parent="1" source="zOiDSa_334_fHsH369Ec-124" target="zOiDSa_334_fHsH369Ec-128" edge="1">
          <mxGeometry relative="1" as="geometry" />
        </mxCell>
        <mxCell id="zOiDSa_334_fHsH369Ec-121" value="SIM" style="edgeLabel;html=1;align=center;verticalAlign=middle;resizable=0;points=[];" parent="zOiDSa_334_fHsH369Ec-120" vertex="1" connectable="0">
          <mxGeometry x="-0.7231" relative="1" as="geometry">
            <mxPoint x="-12" as="offset" />
          </mxGeometry>
        </mxCell>
        <mxCell id="zOiDSa_334_fHsH369Ec-122" value="" style="edgeStyle=orthogonalEdgeStyle;rounded=0;orthogonalLoop=1;jettySize=auto;html=1;" parent="1" source="zOiDSa_334_fHsH369Ec-124" target="zOiDSa_334_fHsH369Ec-136" edge="1">
          <mxGeometry relative="1" as="geometry" />
        </mxCell>
        <mxCell id="zOiDSa_334_fHsH369Ec-123" value="NÃO" style="edgeLabel;html=1;align=center;verticalAlign=middle;resizable=0;points=[];" parent="zOiDSa_334_fHsH369Ec-122" vertex="1" connectable="0">
          <mxGeometry x="-0.596" y="-2" relative="1" as="geometry">
            <mxPoint as="offset" />
          </mxGeometry>
        </mxCell>
        <mxCell id="zOiDSa_334_fHsH369Ec-124" value="Idade &amp;lt; 16?" style="strokeWidth=2;html=1;shape=mxgraph.flowchart.decision;whiteSpace=wrap;fillColor=#fad9d5;strokeColor=#ae4132;" parent="1" vertex="1">
          <mxGeometry x="3401.25" y="745" width="157.5" height="140" as="geometry" />
        </mxCell>
        <mxCell id="zOiDSa_334_fHsH369Ec-125" value="" style="edgeStyle=orthogonalEdgeStyle;rounded=0;orthogonalLoop=1;jettySize=auto;html=1;" parent="1" source="zOiDSa_334_fHsH369Ec-126" edge="1">
          <mxGeometry relative="1" as="geometry">
            <mxPoint x="3480" y="1050" as="targetPoint" />
          </mxGeometry>
        </mxCell>
        <mxCell id="zOiDSa_334_fHsH369Ec-126" value="Voto facultativo" style="strokeWidth=2;html=1;shape=mxgraph.flowchart.display;whiteSpace=wrap;fillColor=#e1d5e7;strokeColor=#9673a6;" parent="1" vertex="1">
          <mxGeometry x="3675" y="885" width="95" height="60" as="geometry" />
        </mxCell>
        <mxCell id="zOiDSa_334_fHsH369Ec-127" value="" style="edgeStyle=orthogonalEdgeStyle;rounded=0;orthogonalLoop=1;jettySize=auto;html=1;" parent="1" source="zOiDSa_334_fHsH369Ec-128" edge="1">
          <mxGeometry relative="1" as="geometry">
            <mxPoint x="3430" y="1090" as="targetPoint" />
            <Array as="points">
              <mxPoint x="3240" y="1000" />
              <mxPoint x="3286" y="1000" />
              <mxPoint x="3286" y="1090" />
            </Array>
          </mxGeometry>
        </mxCell>
        <mxCell id="zOiDSa_334_fHsH369Ec-128" value="Não pode votar?" style="strokeWidth=2;html=1;shape=mxgraph.flowchart.display;whiteSpace=wrap;fillColor=#e1d5e7;strokeColor=#9673a6;" parent="1" vertex="1">
          <mxGeometry x="3190" y="885" width="100" height="60" as="geometry" />
        </mxCell>
        <mxCell id="zOiDSa_334_fHsH369Ec-129" value="Fim" style="strokeWidth=2;html=1;shape=mxgraph.flowchart.start_1;whiteSpace=wrap;fillColor=#d80073;strokeColor=#A50040;fontColor=#ffffff;" parent="1" vertex="1">
          <mxGeometry x="3430" y="1050" width="100" height="60" as="geometry" />
        </mxCell>
        <mxCell id="zOiDSa_334_fHsH369Ec-130" value="" style="edgeStyle=orthogonalEdgeStyle;rounded=0;orthogonalLoop=1;jettySize=auto;html=1;entryX=1;entryY=0.5;entryDx=0;entryDy=0;entryPerimeter=0;" parent="1" source="zOiDSa_334_fHsH369Ec-131" target="zOiDSa_334_fHsH369Ec-129" edge="1">
          <mxGeometry relative="1" as="geometry">
            <mxPoint x="3850" y="1085" as="targetPoint" />
            <Array as="points">
              <mxPoint x="3850" y="988" />
              <mxPoint x="3851" y="988" />
              <mxPoint x="3851" y="1080" />
            </Array>
          </mxGeometry>
        </mxCell>
        <mxCell id="zOiDSa_334_fHsH369Ec-131" value="Voto obrigatório" style="strokeWidth=2;html=1;shape=mxgraph.flowchart.display;whiteSpace=wrap;fillColor=#e1d5e7;strokeColor=#9673a6;" parent="1" vertex="1">
          <mxGeometry x="3800" y="830" width="100" height="60" as="geometry" />
        </mxCell>
        <mxCell id="zOiDSa_334_fHsH369Ec-132" value="" style="edgeStyle=orthogonalEdgeStyle;rounded=0;orthogonalLoop=1;jettySize=auto;html=1;" parent="1" source="zOiDSa_334_fHsH369Ec-136" target="zOiDSa_334_fHsH369Ec-126" edge="1">
          <mxGeometry relative="1" as="geometry" />
        </mxCell>
        <mxCell id="zOiDSa_334_fHsH369Ec-133" value="NÃO" style="edgeLabel;html=1;align=center;verticalAlign=middle;resizable=0;points=[];" parent="zOiDSa_334_fHsH369Ec-132" vertex="1" connectable="0">
          <mxGeometry x="-0.043" y="-2" relative="1" as="geometry">
            <mxPoint as="offset" />
          </mxGeometry>
        </mxCell>
        <mxCell id="zOiDSa_334_fHsH369Ec-134" value="" style="edgeStyle=orthogonalEdgeStyle;rounded=0;orthogonalLoop=1;jettySize=auto;html=1;entryX=0.5;entryY=0;entryDx=0;entryDy=0;entryPerimeter=0;" parent="1" source="zOiDSa_334_fHsH369Ec-136" target="zOiDSa_334_fHsH369Ec-131" edge="1">
          <mxGeometry relative="1" as="geometry">
            <mxPoint x="3882.5" y="770" as="targetPoint" />
            <Array as="points">
              <mxPoint x="3833" y="770" />
              <mxPoint x="3833" y="771" />
              <mxPoint x="3850" y="771" />
            </Array>
          </mxGeometry>
        </mxCell>
        <mxCell id="zOiDSa_334_fHsH369Ec-135" value="SIM" style="edgeLabel;html=1;align=center;verticalAlign=middle;resizable=0;points=[];" parent="zOiDSa_334_fHsH369Ec-134" vertex="1" connectable="0">
          <mxGeometry x="-0.5404" y="-2" relative="1" as="geometry">
            <mxPoint as="offset" />
          </mxGeometry>
        </mxCell>
        <mxCell id="zOiDSa_334_fHsH369Ec-136" value="Idade é &amp;lt;= 18 ou&lt;div&gt;menor que 70?&lt;/div&gt;" style="rhombus;whiteSpace=wrap;html=1;fillColor=#fad9d5;strokeColor=#ae4132;" parent="1" vertex="1">
          <mxGeometry x="3662.5" y="722.5" width="120" height="95" as="geometry" />
        </mxCell>
        <mxCell id="rofH8VBHeHS6uVr7EaK2-1" value="" style="edgeStyle=orthogonalEdgeStyle;rounded=0;orthogonalLoop=1;jettySize=auto;html=1;" edge="1" source="rofH8VBHeHS6uVr7EaK2-2" target="rofH8VBHeHS6uVr7EaK2-3" parent="1">
          <mxGeometry relative="1" as="geometry" />
        </mxCell>
        <mxCell id="rofH8VBHeHS6uVr7EaK2-2" value="&lt;div&gt;Início&lt;/div&gt;" style="strokeWidth=2;html=1;shape=mxgraph.flowchart.start_1;whiteSpace=wrap;fillColor=#fad9d5;strokeColor=#ae4132;" vertex="1" parent="1">
          <mxGeometry x="4227.5" y="582.5" width="100" height="60" as="geometry" />
        </mxCell>
        <mxCell id="rofH8VBHeHS6uVr7EaK2-5" value="" style="edgeStyle=orthogonalEdgeStyle;rounded=0;orthogonalLoop=1;jettySize=auto;html=1;" edge="1" parent="1" source="rofH8VBHeHS6uVr7EaK2-3" target="rofH8VBHeHS6uVr7EaK2-4">
          <mxGeometry relative="1" as="geometry" />
        </mxCell>
        <mxCell id="rofH8VBHeHS6uVr7EaK2-3" value="Definir o número&lt;div&gt;inicial&lt;/div&gt;" style="shape=parallelogram;html=1;strokeWidth=2;perimeter=parallelogramPerimeter;whiteSpace=wrap;rounded=1;arcSize=12;size=0.23;fillColor=#f8cecc;strokeColor=#b85450;gradientColor=#ea6b66;" vertex="1" parent="1">
          <mxGeometry x="4210" y="657.5" width="135" height="60" as="geometry" />
        </mxCell>
        <mxCell id="rofH8VBHeHS6uVr7EaK2-7" value="" style="edgeStyle=orthogonalEdgeStyle;rounded=0;orthogonalLoop=1;jettySize=auto;html=1;" edge="1" parent="1" source="rofH8VBHeHS6uVr7EaK2-4" target="rofH8VBHeHS6uVr7EaK2-6">
          <mxGeometry relative="1" as="geometry" />
        </mxCell>
        <mxCell id="rofH8VBHeHS6uVr7EaK2-12" value="" style="edgeStyle=orthogonalEdgeStyle;rounded=0;orthogonalLoop=1;jettySize=auto;html=1;" edge="1" parent="1" source="rofH8VBHeHS6uVr7EaK2-4">
          <mxGeometry relative="1" as="geometry">
            <mxPoint x="4340" y="1080" as="targetPoint" />
            <Array as="points">
              <mxPoint x="4431" y="783" />
              <mxPoint x="4431" y="1080" />
            </Array>
          </mxGeometry>
        </mxCell>
        <mxCell id="rofH8VBHeHS6uVr7EaK2-15" value="NÃO" style="edgeLabel;html=1;align=center;verticalAlign=middle;resizable=0;points=[];" vertex="1" connectable="0" parent="rofH8VBHeHS6uVr7EaK2-12">
          <mxGeometry x="-0.8485" y="-2" relative="1" as="geometry">
            <mxPoint as="offset" />
          </mxGeometry>
        </mxCell>
        <mxCell id="rofH8VBHeHS6uVr7EaK2-4" value="O número é&amp;nbsp;&lt;div&gt;&amp;lt;= 20?&lt;/div&gt;" style="rhombus;whiteSpace=wrap;html=1;fillColor=#ffe6cc;strokeColor=#d79b00;" vertex="1" parent="1">
          <mxGeometry x="4217.5" y="735" width="120" height="95" as="geometry" />
        </mxCell>
        <mxCell id="rofH8VBHeHS6uVr7EaK2-16" value="" style="edgeStyle=orthogonalEdgeStyle;rounded=0;orthogonalLoop=1;jettySize=auto;html=1;" edge="1" parent="1" source="rofH8VBHeHS6uVr7EaK2-6" target="rofH8VBHeHS6uVr7EaK2-9">
          <mxGeometry relative="1" as="geometry" />
        </mxCell>
        <mxCell id="rofH8VBHeHS6uVr7EaK2-6" value="Dizer o número&lt;div&gt;atual&lt;/div&gt;" style="strokeWidth=2;html=1;shape=mxgraph.flowchart.display;whiteSpace=wrap;fillColor=#f8cecc;strokeColor=#b85450;gradientColor=#ea6b66;" vertex="1" parent="1">
          <mxGeometry x="4227.5" y="850" width="100" height="60" as="geometry" />
        </mxCell>
        <mxCell id="rofH8VBHeHS6uVr7EaK2-8" value="SIM" style="text;html=1;align=center;verticalAlign=middle;resizable=0;points=[];autosize=1;strokeColor=none;fillColor=none;" vertex="1" parent="1">
          <mxGeometry x="4280" y="817.5" width="40" height="30" as="geometry" />
        </mxCell>
        <mxCell id="rofH8VBHeHS6uVr7EaK2-18" value="" style="edgeStyle=orthogonalEdgeStyle;rounded=0;orthogonalLoop=1;jettySize=auto;html=1;entryX=0;entryY=0.5;entryDx=0;entryDy=0;" edge="1" parent="1" source="rofH8VBHeHS6uVr7EaK2-9" target="rofH8VBHeHS6uVr7EaK2-4">
          <mxGeometry relative="1" as="geometry">
            <mxPoint x="4170" y="790" as="targetPoint" />
            <Array as="points">
              <mxPoint x="4171" y="955" />
              <mxPoint x="4171" y="783" />
            </Array>
          </mxGeometry>
        </mxCell>
        <mxCell id="rofH8VBHeHS6uVr7EaK2-9" value="Incrementar o número em + 2" style="rounded=1;whiteSpace=wrap;html=1;absoluteArcSize=1;arcSize=14;strokeWidth=2;fillColor=#f8cecc;strokeColor=#b85450;" vertex="1" parent="1">
          <mxGeometry x="4222.5" y="930" width="110" height="50" as="geometry" />
        </mxCell>
        <mxCell id="rofH8VBHeHS6uVr7EaK2-13" value="Fim" style="strokeWidth=2;html=1;shape=mxgraph.flowchart.start_1;whiteSpace=wrap;fillColor=#e51400;strokeColor=#B20000;fontColor=#ffffff;" vertex="1" parent="1">
          <mxGeometry x="4237.5" y="1050" width="100" height="60" as="geometry" />
        </mxCell>
        <mxCell id="rofH8VBHeHS6uVr7EaK2-34" value="" style="shape=tape;whiteSpace=wrap;html=1;" vertex="1" parent="1">
          <mxGeometry x="1050" y="1180" width="120" height="100" as="geometry" />
        </mxCell>
      </root>
    </mxGraphModel>
  </diagram>
</mxfile>
